<?xml version="1.0" encoding="UTF-8"?>
<svg id="Layer_1" data-name="Layer 1" xmlns="http://www.w3.org/2000/svg" viewBox="0 0 481.18 130">
  <defs>
    <style>
      .cls-1 {
        fill: #f43e37;
      }

      .cls-2 {
        fill: #0392cf;
      }
    </style>
  </defs>
  <rect class="cls-2" x="35" y="62" width="18" height="6"/>
  <rect class="cls-2" x="35" y="15" width="18" height="6"/>
  <g>
    <path class="cls-1" d="M122,94c-8.92,0-16.32,6.49-17.75,15h-16.5c-1.43-8.51-8.83-15-17.75-15s-16.32,6.49-17.75,15h-16.5c-1.43-8.51-8.83-15-17.75-15-9.94,0-18,8.06-18,18s8.06,18,18,18c8.92,0,16.32-6.49,17.75-15h16.5c1.43,8.51,8.83,15,17.75,15s16.32-6.49,17.75-15h16.5c1.43,8.51,8.83,15,17.75,15,9.94,0,18-8.06,18-18s-8.06-18-18-18ZM18,125c-7.18,0-13-5.82-13-13s5.82-13,13-13,13,5.82,13,13-5.82,13-13,13ZM70,125c-7.18,0-13-5.82-13-13s5.82-13,13-13,13,5.82,13,13-5.82,13-13,13ZM122,125c-7.18,0-13-5.82-13-13s5.82-13,13-13,13,5.82,13,13-5.82,13-13,13Z"/>
    <path class="cls-1" d="M122,36c9.94,0,18-8.06,18-18S131.94,0,122,0c-8.92,0-16.32,6.49-17.75,15h-21.25v6h21.25c1.43,8.51,8.83,15,17.75,15ZM122,5c7.18,0,13,5.82,13,13s-5.82,13-13,13-13-5.82-13-13,5.82-13,13-13Z"/>
    <path class="cls-1" d="M122,47c-8.92,0-16.32,6.49-17.75,15h-21.25v6h21.25c1.43,8.51,8.83,15,17.75,15,9.94,0,18-8.06,18-18s-8.06-18-18-18ZM122,78c-7.18,0-13-5.82-13-13s5.82-13,13-13,13,5.82,13,13-5.82,13-13,13Z"/>
  </g>
  <path class="cls-2" d="M70,0c-9.94,0-18,8.06-18,18s8.06,18,18,18,18-8.06,18-18S79.94,0,70,0ZM77.23,12.86l-8.97,12.9-6.26-5.64c-.62-.55-.67-1.5-.11-2.12.55-.62,1.5-.67,2.12-.11l3.74,3.36,7.03-10.1c.47-.68,1.41-.85,2.09-.37s.85,1.41.37,2.09Z"/>
  <path class="cls-2" d="M70,47c-9.94,0-18,8.06-18,18s8.06,18,18,18,18-8.06,18-18-8.06-18-18-18ZM77.23,59.86l-8.97,12.9-6.26-5.64c-.62-.55-.67-1.5-.11-2.12.55-.62,1.5-.67,2.12-.11l3.74,3.36,7.03-10.1c.47-.68,1.41-.85,2.09-.37s.85,1.41.37,2.09Z"/>
  <path class="cls-2" d="M18,47c-9.94,0-18,8.06-18,18s8.06,18,18,18,18-8.06,18-18-8.06-18-18-18ZM25.23,59.86l-8.97,12.9-6.26-5.64c-.62-.55-.67-1.5-.11-2.12.55-.62,1.5-.67,2.12-.11l3.74,3.36,7.03-10.1c.47-.68,1.41-.85,2.09-.37s.85,1.41.37,2.09Z"/>
  <path class="cls-2" d="M18,0C8.06,0,0,8.06,0,18s8.06,18,18,18,18-8.06,18-18S27.94,0,18,0ZM25.23,12.86l-8.97,12.9-6.26-5.64c-.62-.55-.67-1.5-.11-2.12.55-.62,1.5-.67,2.12-.11l3.74,3.36,7.03-10.1c.47-.68,1.41-.85,2.09-.37s.85,1.41.37,2.09Z"/>
  <path class="cls-1" d="M201.08,30.14l-5.49-15.58-5.49,15.58h10.97ZM176.24,45.89c-.31,0-.61-.12-.88-.35-.24-.28-.35-.57-.35-.88,0-.24.02-.41.06-.53l13.86-37.88c.12-.47.37-.87.77-1.18.39-.31.9-.47,1.53-.47h8.73c.63,0,1.14.16,1.53.47.39.31.65.71.77,1.18l13.81,37.88.12.53c0,.31-.14.61-.41.88-.24.24-.53.35-.88.35h-7.26c-.94,0-1.57-.41-1.89-1.24l-2.3-6.02h-15.75l-2.24,6.02c-.31.83-.96,1.24-1.95,1.24h-7.26Z"/>
  <path class="cls-1" d="M228.21,45.89c-.39,0-.75-.14-1.06-.41-.28-.31-.41-.67-.41-1.06V6.06c0-.43.14-.79.41-1.06.31-.28.67-.41,1.06-.41h6.37c.94,0,1.63.43,2.06,1.3l10.38,18.58,10.38-18.58c.43-.87,1.12-1.3,2.06-1.3h6.31c.43,0,.79.14,1.06.41.31.28.47.63.47,1.06v38.35c0,.43-.16.79-.47,1.06-.28.28-.63.41-1.06.41h-7.02c-.43,0-.81-.14-1.12-.41-.28-.28-.41-.63-.41-1.06v-22.12l-6.61,12.33c-.51.9-1.2,1.36-2.06,1.36h-3.07c-.51,0-.92-.12-1.24-.35s-.59-.57-.83-1l-6.67-12.33v22.12c0,.39-.14.75-.41,1.06-.28.28-.63.41-1.06.41h-7.08Z"/>
  <path class="cls-1" d="M282.96,45.89c-.39,0-.75-.14-1.06-.41-.28-.31-.41-.67-.41-1.06V6.06c0-.43.14-.79.41-1.06.31-.28.67-.41,1.06-.41h27.55c.43,0,.79.14,1.06.41s.41.63.41,1.06v5.55c0,.39-.14.75-.41,1.06-.28.28-.63.41-1.06.41h-18.82v7.96h17.52c.43,0,.79.16,1.06.47.28.28.41.63.41,1.06v5.13c0,.39-.14.75-.41,1.06-.28.28-.63.41-1.06.41h-17.52v8.2h19.29c.43,0,.79.14,1.06.41s.41.63.41,1.06v5.55c0,.39-.14.75-.41,1.06-.28.28-.63.41-1.06.41h-28.02Z"/>
  <path class="cls-1" d="M342.47,22.94c1.81,0,3.19-.43,4.13-1.3.94-.9,1.42-2.14,1.42-3.72s-.47-2.81-1.42-3.72c-.9-.94-2.28-1.42-4.13-1.42h-6.78v10.15h6.78ZM326.54,45.89c-.39,0-.75-.14-1.06-.41-.28-.31-.41-.67-.41-1.06V6.06c0-.43.14-.79.41-1.06.31-.28.67-.41,1.06-.41h16.05c5.15,0,9.16,1.18,12.04,3.54,2.91,2.32,4.37,5.62,4.37,9.91,0,2.75-.65,5.09-1.95,7.02s-3.09,3.4-5.37,4.42l8.08,14.51c.12.24.18.45.18.65,0,.31-.14.61-.41.88-.24.24-.51.35-.83.35h-7.85c-1.14,0-1.95-.53-2.42-1.59l-6.73-12.98h-6.02v13.1c0,.43-.16.79-.47,1.06-.28.28-.63.41-1.06.41h-7.61Z"/>
  <path class="cls-1" d="M373.24,45.89c-.39,0-.75-.14-1.06-.41-.28-.31-.41-.67-.41-1.06V6.06c0-.43.14-.79.41-1.06.31-.28.67-.41,1.06-.41h7.91c.43,0,.79.14,1.06.41.31.28.47.63.47,1.06v38.35c0,.43-.16.79-.47,1.06-.28.28-.63.41-1.06.41h-7.91Z"/>
  <path class="cls-1" d="M413.72,46.48c-5.62,0-10.03-1.36-13.22-4.07-3.15-2.75-4.82-6.73-5.01-11.92-.04-1.06-.06-2.79-.06-5.19s.02-4.21.06-5.31c.2-5.11,1.91-9.05,5.13-11.8,3.23-2.79,7.59-4.19,13.1-4.19,3.46,0,6.57.59,9.32,1.77,2.75,1.14,4.92,2.79,6.49,4.96,1.61,2.12,2.44,4.62,2.48,7.49v.12c0,.31-.14.59-.41.83-.24.2-.51.29-.83.29h-7.96c-.51,0-.9-.1-1.18-.29-.28-.24-.51-.65-.71-1.24-.55-2.01-1.42-3.4-2.6-4.19-1.18-.83-2.73-1.24-4.66-1.24-4.64,0-7.04,2.6-7.2,7.79-.04,1.06-.06,2.69-.06,4.9s.02,3.87.06,5.01c.16,5.19,2.56,7.79,7.2,7.79,1.93,0,3.5-.41,4.72-1.24,1.22-.87,2.06-2.26,2.54-4.19.16-.59.37-.98.65-1.18.28-.24.69-.35,1.24-.35h7.96c.35,0,.65.12.88.35.28.24.39.53.35.88-.04,2.87-.87,5.39-2.48,7.55-1.57,2.12-3.74,3.78-6.49,4.96-2.75,1.14-5.86,1.71-9.32,1.71Z"/>
  <path class="cls-1" d="M466.07,30.14l-5.49-15.58-5.49,15.58h10.97ZM441.23,45.89c-.31,0-.61-.12-.89-.35-.24-.28-.35-.57-.35-.88,0-.24.02-.41.06-.53l13.86-37.88c.12-.47.37-.87.77-1.18.39-.31.9-.47,1.53-.47h8.73c.63,0,1.14.16,1.53.47.39.31.65.71.77,1.18l13.81,37.88.12.53c0,.31-.14.61-.41.88-.24.24-.53.35-.88.35h-7.26c-.94,0-1.57-.41-1.89-1.24l-2.3-6.02h-15.75l-2.24,6.02c-.31.83-.96,1.24-1.95,1.24h-7.26Z"/>
  <path class="cls-2" d="M168.39,117.83c1,.71,2.48,1.42,4.42,2.12,2.01.65,4.28.97,6.81.97,2.71,0,4.87-.47,6.46-1.42,1.65-1,2.89-2.45,3.72-4.34.88-1.95,1.45-4.34,1.68-7.17.29-2.89.44-6.22.44-10v-31.95h10v31.95c0,4.78-.24,9.14-.71,13.1-.47,3.89-1.47,7.23-3.01,10-1.53,2.77-3.78,4.93-6.73,6.46-2.95,1.53-6.9,2.3-11.86,2.3-5.31,0-9.85-1.3-13.63-3.89l2.39-8.14Z"/>
  <path class="cls-2" d="M221.51,97.47c0,2.95.47,5.81,1.42,8.58s2.27,5.22,3.98,7.35c1.77,2.12,3.89,3.83,6.37,5.13,2.48,1.24,5.25,1.86,8.32,1.86s5.99-.65,8.41-1.95c2.48-1.36,4.57-3.13,6.28-5.31,1.71-2.18,3.01-4.63,3.89-7.35.88-2.71,1.33-5.49,1.33-8.32,0-3.01-.47-5.87-1.42-8.58-.94-2.77-2.3-5.19-4.07-7.26-1.71-2.12-3.81-3.81-6.28-5.04-2.42-1.3-5.13-1.95-8.14-1.95-3.19,0-6.02.68-8.5,2.04-2.48,1.3-4.57,3.01-6.28,5.13-1.71,2.12-3.04,4.57-3.98,7.35-.88,2.71-1.33,5.49-1.33,8.32ZM241.51,129.33c-4.48,0-8.58-.88-12.3-2.65-3.66-1.83-6.81-4.22-9.47-7.17-2.65-3.01-4.72-6.43-6.19-10.27-1.42-3.83-2.12-7.76-2.12-11.77s.77-8.2,2.3-12.04c1.53-3.83,3.63-7.23,6.28-10.18,2.71-2.95,5.9-5.28,9.56-6.99,3.72-1.77,7.76-2.65,12.12-2.65s8.55.94,12.21,2.83c3.72,1.83,6.87,4.25,9.47,7.26,2.65,3.01,4.69,6.43,6.11,10.27,1.47,3.78,2.21,7.64,2.21,11.59,0,4.19-.77,8.2-2.3,12.04-1.47,3.83-3.57,7.23-6.28,10.18-2.71,2.89-5.93,5.22-9.65,6.99-3.66,1.71-7.64,2.57-11.95,2.57Z"/>
  <path class="cls-2" d="M319.12,80.83c-.59-.65-1.45-1.33-2.57-2.04-1.12-.77-2.45-1.47-3.98-2.12-1.47-.65-3.13-1.18-4.96-1.59-1.77-.41-3.6-.62-5.49-.62-4.19,0-7.29.77-9.29,2.3-1.95,1.53-2.92,3.66-2.92,6.37,0,1.53.29,2.8.88,3.81.65.94,1.62,1.8,2.92,2.57,1.3.71,2.92,1.36,4.87,1.95,1.95.53,4.22,1.12,6.81,1.77,3.19.77,6.05,1.62,8.58,2.57,2.6.94,4.78,2.09,6.55,3.45,1.77,1.36,3.13,3.04,4.07,5.04,1,1.95,1.5,4.34,1.5,7.17,0,3.19-.62,5.93-1.86,8.23-1.18,2.3-2.83,4.19-4.96,5.66-2.06,1.42-4.48,2.48-7.26,3.19-2.77.65-5.75.97-8.94.97-4.78,0-9.41-.71-13.89-2.12-4.42-1.47-8.44-3.6-12.04-6.37l4.51-8.5c.77.77,1.86,1.62,3.27,2.57,1.47.94,3.16,1.83,5.04,2.65,1.95.77,4.04,1.45,6.28,2.04,2.24.53,4.57.8,6.99.8,3.89,0,6.9-.68,9.03-2.04,2.12-1.36,3.19-3.36,3.19-6.02,0-1.59-.41-2.92-1.24-3.98-.77-1.06-1.89-1.98-3.36-2.74-1.47-.83-3.27-1.56-5.4-2.21-2.12-.65-4.54-1.33-7.26-2.04-3.13-.83-5.87-1.68-8.23-2.57-2.3-.94-4.22-2.06-5.75-3.36-1.53-1.3-2.71-2.8-3.54-4.51-.77-1.77-1.15-3.89-1.15-6.37,0-3.07.59-5.78,1.77-8.14,1.18-2.42,2.77-4.42,4.78-6.02,2.06-1.65,4.48-2.89,7.26-3.72,2.77-.83,5.78-1.24,9.03-1.24,4.25,0,8.17.68,11.77,2.04,3.6,1.36,6.76,3.04,9.47,5.04l-4.51,8.14Z"/>
  <polygon class="cls-2" points="387.65 66.06 387.65 128.89 377.65 128.89 377.65 101.19 345.96 101.19 345.96 128.89 336.05 128.89 336.05 66.06 345.96 66.06 345.96 92.34 377.65 92.34 377.65 66.06 387.65 66.06"/>
</svg>