<?xml version="1.0" encoding="UTF-8"?>
<svg xmlns="http://www.w3.org/2000/svg" xmlns:xlink="http://www.w3.org/1999/xlink" viewBox="0 0 592.54 153.98">
  <defs>
    <style>
      .cls-1 {
        fill: #323232;
      }

      .cls-2 {
        fill: url(#linear-gradient-4);
      }

      .cls-3 {
        fill: url(#linear-gradient-3);
      }

      .cls-4 {
        fill: url(#linear-gradient-2);
      }

      .cls-5 {
        fill: url(#linear-gradient);
      }

      .cls-6 {
        fill: #fff;
      }
    </style>
    <linearGradient id="linear-gradient" x1="104.47" y1="116.83" x2="24.39" y2="-.13" gradientUnits="userSpaceOnUse">
      <stop offset="0" stop-color="#be0000"/>
      <stop offset=".39" stop-color="#d00"/>
      <stop offset=".77" stop-color="#f60000"/>
      <stop offset="1" stop-color="red"/>
    </linearGradient>
    <linearGradient id="linear-gradient-2" x1="82.17" y1="63.8" x2="83.25" y2="51.47" gradientUnits="userSpaceOnUse">
      <stop offset=".65" stop-color="#fff" stop-opacity="0"/>
      <stop offset=".69" stop-color="#ececec" stop-opacity=".23"/>
      <stop offset=".76" stop-color="#d6d6d6" stop-opacity=".5"/>
      <stop offset=".81" stop-color="#c5c5c5" stop-opacity=".72"/>
      <stop offset=".87" stop-color="#b9b9b9" stop-opacity=".87"/>
      <stop offset=".91" stop-color="#b1b1b1" stop-opacity=".97"/>
      <stop offset=".95" stop-color="#afafaf"/>
    </linearGradient>
    <linearGradient id="linear-gradient-3" x1="66.32" y1="96.34" x2="118.23" y2="96.34" gradientUnits="userSpaceOnUse">
      <stop offset="0" stop-color="#fff" stop-opacity="0"/>
      <stop offset=".07" stop-color="#f3f3f3" stop-opacity=".15"/>
      <stop offset=".21" stop-color="#dedede" stop-opacity=".41"/>
      <stop offset=".35" stop-color="#cdcdcd" stop-opacity=".62"/>
      <stop offset=".49" stop-color="silver" stop-opacity=".79"/>
      <stop offset=".63" stop-color="#b6b6b6" stop-opacity=".91"/>
      <stop offset=".77" stop-color="#b0b0b0" stop-opacity=".98"/>
      <stop offset=".9" stop-color="#afafaf"/>
    </linearGradient>
    <linearGradient id="linear-gradient-4" x1="1.5" y1="42.51" x2="59.52" y2="42.51" gradientUnits="userSpaceOnUse">
      <stop offset=".25" stop-color="#fff" stop-opacity="0"/>
      <stop offset=".36" stop-color="#f6f6f6" stop-opacity=".11"/>
      <stop offset=".58" stop-color="#e0e0e0" stop-opacity=".38"/>
      <stop offset=".88" stop-color="#bdbdbd" stop-opacity=".82"/>
      <stop offset="1" stop-color="#afafaf"/>
    </linearGradient>
  </defs>
  <g id="Qantas_Tail" data-name="Qantas Tail">
    <path class="cls-5" d="M44.59,116.99h119.99L68.43,20.43C55.61,7.61,38.24,0,20.12,0H0l1.5,3.93,6.66,17.48,36.43,95.58Z"/>
  </g>
  <g id="Roo">
    <path class="cls-6" d="M8.16,21.41c13.14,22.43,47.61,24.8,51.36,59.68.15,1.44,1.25,2.59,2.68,2.81,19.87,3.1,39.22,11.28,56.03,24.76h.02c.11.1.23.14.37.14s.3-.05.41-.16c.24-.23.25-.61.02-.85-11.64-12.24-25.87-22.01-41.84-28.44l-4.86-1.96c-2.5-1.01-4.23-3.49-4.16-6.34.27-10.42,24.92-8.3,27.42-13.31l.43-.86c-5.08-4.34-11.11-7.6-17.75-9.42-.06.25-.22,1.47,1.13,3.67,1.47,2.39-1.61,6.2-6.09,2.09l-.38-.35C39.66,22.36,14.69,38.19,1.5,3.93l6.66,17.48Z"/>
  </g>
  <g id="Roo_Shading" data-name="Roo Shading">
    <path class="cls-4" d="M88.25,56.32s-5.46.27-8.82-5.19c1,1.62-.1,3.9-2.31,3.91v8.32c3.59-1.04,7.69-1.68,11.13-2.41v-4.63Z"/>
    <path class="cls-3" d="M66.32,84.62c18.41,3.54,36.26,11.5,51.91,24.04-34.88-29.8-50.77-24.41-51.91-24.04Z"/>
    <path class="cls-2" d="M15.17,22.97h0C9.75,19.12,5.17,13.46,1.5,3.93l6.66,17.48c13.14,22.43,47.6,24.8,51.36,59.67-3.79-44.51-23.34-37.86-44.35-58.11Z"/>
  </g>
  <g id="Qantas_SOA_Type" data-name="Qantas / SOA Type">
    <g>
      <path class="cls-1" d="M176.76,95.52c-23.72,0-38.78-12.34-38.78-27.81s15.95-27.81,39.46-27.81,39.46,12.13,39.46,27.19c0,6.75-3,12.27-8.72,16.9h13.97l-3.34,5.73c-2.11,3.61-4.7,5.79-10.29,5.79h-31.76ZM177.44,82.91c12.95,0,23.85-6.41,23.85-15.2s-10.9-15.2-23.85-15.2-23.85,6.41-23.85,15.2,10.9,15.2,23.85,15.2Z"/>
      <path class="cls-1" d="M280.41,86.11h-37.35l-5.32,9.41h-15.47l25.9-44.85c2.04-3.54,4.98-6.27,10.84-6.27h5.79c5.86,0,8.79,2.73,10.84,6.27l25.9,44.85h-15.81l-5.32-9.41ZM249.4,74.87h24.67l-11.45-20.38c-.27-.48-.48-.61-.89-.61s-.61.14-.89.61l-11.45,20.38Z"/>
      <path class="cls-1" d="M375.28,44.4v51.12h-13.84l-40.62-33.87v33.87h-13.84v-51.12h8.66c4.43,0,6.68,1.16,9.2,3.34l36.6,30.47v-33.8h13.84Z"/>
      <path class="cls-1" d="M424.48,55.92v39.6h-13.84v-39.6h-28.35v-11.52h70.54v11.52h-28.35Z"/>
      <path class="cls-1" d="M498.9,86.11h-37.35l-5.32,9.41h-15.47l25.9-44.85c2.04-3.54,4.98-6.27,10.84-6.27h5.79c5.86,0,8.79,2.73,10.84,6.27l25.9,44.85h-15.81l-5.32-9.41ZM467.89,74.87h24.67l-11.45-20.38c-.27-.48-.48-.61-.89-.61s-.61.14-.89.61l-11.45,20.38Z"/>
      <path class="cls-1" d="M524.79,91.84l-1.3-.41,3.48-11.11c9.95,3.2,20.58,4.5,30.19,4.5,15.74,0,19.63-1.84,19.63-3.82,0-.82-.55-1.43-1.77-1.84-1.57-.55-5.93-1.43-18.81-3.54-14.24-2.32-20.65-3.48-25.35-5.66-4.7-2.18-7.57-5.66-7.57-10.77,0-3.89,1.91-7.02,4.98-9.47,5.45-4.23,14.79-5.93,24.94-5.93,13.09,0,24.06,1.09,36.26,4.09l1.09.34-2.93,10.84c-13.63-2.93-21.2-3.75-31.56-3.88-7.29-.07-12.34.48-14.99,1.29-1.5.48-2.11,1.16-2.11,1.98,0,.75.48,1.43,1.98,1.91,1.64.55,4.29,1.16,18.27,3.41,15.13,2.45,20.11,3.48,24.26,5.11,5.66,2.18,9.06,6.2,9.06,11.24,0,6.34-4.91,11.04-13.43,13.63-5.25,1.57-12.27,2.45-20.17,2.45-12.4,0-25.63-1.64-34.14-4.36Z"/>
    </g>
    <g>
      <path class="cls-1" d="M316.54,125.18v-.7c0-2.89-2.08-5.13-5.71-5.13s-5.62,1.8-5.62,4.34c0,2.02,1.42,3.46,3.32,4.21l4.78,1.93c3.32,1.31,7.04,3.07,7.04,8.02s-3.85,8.37-9.47,8.37-9.52-3.11-9.52-8.11v-.7h3.32v.88c0,2.94,2.26,5.08,6.15,5.08s6.2-2.19,6.2-5.13c0-3.11-2.26-4.34-4.96-5.39l-4.12-1.67c-3.27-1.27-5.98-3.37-5.98-7.23,0-4.34,3.54-7.41,8.85-7.41s8.98,3.11,8.98,8.11v.53h-3.27Z"/>
      <path class="cls-1" d="M328.07,126.85c1.28-1.84,3.32-2.94,5.89-2.94,4.69,0,7.48,3.11,7.48,7.93v6.44c0,4.82-2.79,7.93-7.48,7.93-2.39,0-4.34-.92-5.62-2.59v10.34h-3.23v-29.62h2.48l.49,2.5ZM328.34,132.06v6.05c0,2.98,1.9,5.26,5.09,5.26s4.78-2.15,4.78-4.95v-6.71c0-2.76-1.64-4.95-4.78-4.95s-5.09,2.32-5.09,5.3Z"/>
      <path class="cls-1" d="M348.05,116.2c1.15,0,2.08.92,2.08,2.1s-.93,2.06-2.08,2.06-2.12-.92-2.12-2.06.93-2.1,2.12-2.1ZM349.65,124.35v21.43h-3.23v-21.43h3.23Z"/>
      <path class="cls-1" d="M355.18,145.78v-21.43h2.48l.53,2.72c1.2-1.93,3.23-3.15,5.75-3.15.35,0,.71.04,1.06.09v3.07c-.35-.04-.84-.13-1.33-.13-3.1,0-5.27,2.15-5.27,5.35v13.5h-3.23Z"/>
      <path class="cls-1" d="M370.58,116.2c1.15,0,2.08.92,2.08,2.1s-.93,2.06-2.08,2.06-2.12-.92-2.12-2.06.93-2.1,2.12-2.1ZM372.18,124.35v21.43h-3.23v-21.43h3.23Z"/>
      <path class="cls-1" d="M376.2,124.48h4.16v-5.83h3.27v5.83h4.16v2.72h-4.16v18.58h-3.27v-18.58h-4.16v-2.72Z"/>
      <path class="cls-1" d="M415.97,137.89c0,5.13-3.36,8.33-8.28,8.33s-8.23-3.2-8.23-8.33v-5.65c0-5.13,3.32-8.33,8.23-8.33s8.28,3.2,8.28,8.33v5.65ZM402.69,138.16c0,3.02,1.81,5.3,5,5.3s5-2.28,5-5.3v-6.14c0-3.02-1.81-5.3-5-5.3s-5,2.28-5,5.3v6.14Z"/>
      <path class="cls-1" d="M419.23,124.48h3.45v-1.05c0-4.73,2.52-7.32,7.26-7.32h1.86v2.76h-1.68c-3.1,0-4.16,1.8-4.16,4.34v1.27h5.58v2.72h-5.58v18.58h-3.27v-18.58h-3.45v-2.72Z"/>
      <path class="cls-1" d="M441.69,145.78l9.29-28.79h3.41l9.38,28.79h-3.5l-2.12-6.62h-11.06l-2.08,6.62h-3.32ZM447.98,136.27h9.34l-4.74-14.77-4.6,14.77Z"/>
      <path class="cls-1" d="M467.13,124.35h3.23v14.2c0,2.72,1.55,4.82,4.56,4.82s5.05-2.28,5.05-5.26v-13.76h3.23v21.43h-2.48l-.49-2.45c-1.28,1.8-3.36,2.89-5.89,2.89-4.6,0-7.21-3.02-7.21-7.67v-14.2Z"/>
      <path class="cls-1" d="M490.63,139.16v.75c0,2.15,1.86,3.72,5.05,3.72,3.01,0,4.6-1.49,4.6-3.59,0-1.75-.84-2.63-2.88-3.24l-4.16-1.27c-2.52-.74-5-2.28-5-5.61s2.97-6,7.3-6c4.56,0,7.7,2.32,7.7,6.27v.35h-3.05v-.53c0-1.97-1.68-3.55-4.65-3.55-1.99,0-4.25,1.01-4.25,3.2,0,1.45.8,2.32,2.61,2.85l3.67,1.14c3.23,1.01,5.84,2.32,5.84,6.05s-3.01,6.53-7.7,6.53-8.1-2.45-8.1-6.49v-.57h3.01Z"/>
      <path class="cls-1" d="M506.66,124.48h4.16v-5.83h3.27v5.83h4.16v2.72h-4.16v18.58h-3.27v-18.58h-4.16v-2.72Z"/>
      <path class="cls-1" d="M522.3,145.78v-21.43h2.48l.53,2.72c1.2-1.93,3.23-3.15,5.75-3.15.35,0,.71.04,1.06.09v3.07c-.35-.04-.84-.13-1.33-.13-3.1,0-5.27,2.15-5.27,5.35v13.5h-3.23Z"/>
      <path class="cls-1" d="M535.24,131.85c0-4.82,2.79-7.93,7.48-7.93,2.57,0,4.6,1.1,5.89,2.89l.49-2.45h2.48v21.43h-2.48l-.49-2.45c-1.28,1.8-3.36,2.89-5.89,2.89-4.69,0-7.48-3.11-7.48-7.93v-6.44ZM548.34,138.11v-6.05c0-2.98-1.9-5.3-5.09-5.3s-4.78,2.19-4.78,4.95v6.71c0,2.8,1.64,4.95,4.78,4.95s5.09-2.28,5.09-5.26Z"/>
      <path class="cls-1" d="M560.44,116.11v29.67h-3.23v-29.67h3.23Z"/>
      <path class="cls-1" d="M567.71,116.2c1.15,0,2.08.92,2.08,2.1s-.93,2.06-2.08,2.06-2.12-.92-2.12-2.06.93-2.1,2.12-2.1ZM569.31,124.35v21.43h-3.23v-21.43h3.23Z"/>
      <path class="cls-1" d="M574.23,131.85c0-4.82,2.79-7.93,7.48-7.93,2.57,0,4.6,1.1,5.89,2.89l.49-2.45h2.48v21.43h-2.48l-.49-2.45c-1.28,1.8-3.36,2.89-5.89,2.89-4.69,0-7.48-3.11-7.48-7.93v-6.44ZM587.33,138.11v-6.05c0-2.98-1.9-5.3-5.09-5.3s-4.78,2.19-4.78,4.95v6.71c0,2.8,1.64,4.95,4.78,4.95s5.09-2.28,5.09-5.26Z"/>
    </g>
  </g>
</svg>